<svg xmlns="http://www.w3.org/2000/svg" width="53.864" height="45.844" viewBox="0 0 53.864 45.844">
  <g id="Group" transform="translate(0 0.002)">
    <path id="Vector" d="M22.979,6.932a.573.573,0,0,0,.407-.171.585.585,0,0,0,.169-.412V4.41A1.92,1.92,0,0,0,23,3.062,1.88,1.88,0,0,0,21.667,2.5h-3.1L17.864.4a.581.581,0,0,0-.282-.331.571.571,0,0,0-.431-.039L.379,5.178a.579.579,0,0,0-.319.288A.589.589,0,0,0,.025,5.9a.582.582,0,0,0,.267.337.572.572,0,0,0,.424.059L16.953,1.3,18.5,5.921a.58.58,0,0,0,.291.335.571.571,0,0,0,.44.029.578.578,0,0,0,.332-.294.588.588,0,0,0,.029-.445l-.63-1.881h2.707a.74.74,0,0,1,.735.743v1.94A.578.578,0,0,0,22.979,6.932Z" transform="translate(24.558 1.803)" fill="#44adf4"/>
    <path id="Vector-2" data-name="Vector" d="M51.738,21.49a.7.7,0,0,0-.5.21.722.722,0,0,0,0,1.013.7.7,0,0,0,.5.21c.5,0,.709.213.709.716v8.6c0,.5-.211.716-.709.716H40.4c-.5,0-.709-.213-.709-.716V25.072c0-.5.211-.716.709-.716h8.5a.7.7,0,0,0,.5-.21.72.72,0,0,0,.208-.506v-8.6a2,2,0,0,0-2.126-2.149H4.252A2.645,2.645,0,0,1,1.417,10.03,2.645,2.645,0,0,1,4.252,7.165h7.2L7.158,8.594a.706.706,0,0,0-.251.133.715.715,0,0,0-.18.221.722.722,0,0,0,.094.807.706.706,0,0,0,.5.243.7.7,0,0,0,.28-.044L33.285,1.4a.707.707,0,0,0,.241-.138.719.719,0,0,0,.244-.49A.722.722,0,0,0,33.6.248.707.707,0,0,0,33.115,0a.7.7,0,0,0-.275.034L15.689,5.752a.549.549,0,0,0-.1-.02H4.252A4.048,4.048,0,0,0,0,10.03V41.546a4.048,4.048,0,0,0,4.252,4.3H47.486a2,2,0,0,0,2.126-2.149V36.532a.72.72,0,0,0-.208-.506.7.7,0,0,0-1,0,.72.72,0,0,0-.208.506v7.163c0,.5-.211.716-.709.716H4.252a2.645,2.645,0,0,1-2.835-2.865v-28.2a4.279,4.279,0,0,0,2.835.986H47.486c.5,0,.709.213.709.716v7.879H40.4a2,2,0,0,0-2.126,2.149v7.163A2,2,0,0,0,40.4,34.383h11.34a2,2,0,0,0,2.126-2.149v-8.6A2,2,0,0,0,51.738,21.49Z" transform="translate(0 -0.002)" fill="#44adf4"/>
    <path id="Vector-3" data-name="Vector" d="M2.3,1.165A1.159,1.159,0,0,1,1.152,2.329,1.159,1.159,0,0,1,0,1.165,1.159,1.159,0,0,1,1.152,0,1.159,1.159,0,0,1,2.3,1.165Z" transform="translate(45.797 27.558)" fill="#44adf4"/>
  </g>
</svg>
