<svg xmlns="http://www.w3.org/2000/svg" width="409" height="336.995" viewBox="0 0 409 336.995">
  <g id="Group_2103" data-name="Group 2103" transform="translate(-754 -277)">
    <circle id="Ellipse_458" data-name="Ellipse 458" cx="158.5" cy="158.5" r="158.5" transform="translate(754 277)" fill="rgba(186,0,0,0.08)"/>
    <circle id="Ellipse_459" data-name="Ellipse 459" cx="44" cy="44" r="44" transform="translate(1075 277)" fill="rgba(186,0,0,0.08)"/>
    <circle id="Ellipse_460" data-name="Ellipse 460" cx="26.5" cy="26.5" r="26.5" transform="translate(1075 523)" fill="rgba(186,0,0,0.08)"/>
    <g id="Group_2102" data-name="Group 2102" transform="translate(260.561)">
      <g id="undraw_online_information_re_erks" transform="translate(529 313)">
        <path id="Path_4707" data-name="Path 4707" d="M574.513,354.548H287.65a8.737,8.737,0,0,1-8.727-8.727V184.073H583.24V345.821A8.737,8.737,0,0,1,574.513,354.548Z" transform="translate(-278.312 -174.234)" fill="#e6e6e6"/>
        <path id="Path_4708" data-name="Path 4708" d="M577.032,352.72H313a4.5,4.5,0,0,1-4.5-4.5V220.151a4.5,4.5,0,0,1,4.5-4.5H577.032a4.5,4.5,0,0,1,4.5,4.5V348.224A4.5,4.5,0,0,1,577.032,352.72Z" transform="translate(-292.067 -189.111)" fill="#fff"/>
        <path id="Path_4709" data-name="Path 4709" d="M583.308,181.206H277.769V174.2a8.737,8.737,0,0,1,8.727-8.727H574.58a8.737,8.737,0,0,1,8.727,8.727Z" transform="translate(-277.769 -165.471)" fill="#ba0000"/>
        <path id="Path_4710" data-name="Path 4710" d="M389.224,346.558H342.23a4.5,4.5,0,0,1-4.5-4.5V311.169a4.5,4.5,0,0,1,4.5-4.5h46.993a4.5,4.5,0,0,1,4.5,4.5v30.893A4.5,4.5,0,0,1,389.224,346.558Z" transform="translate(-306.295 -231.673)" fill="#e6e6e6"/>
        <path id="Path_4711" data-name="Path 4711" d="M656.262,311.675H507.782a2.5,2.5,0,0,1,0-5h148.48a2.5,2.5,0,0,1,0,5Z" transform="translate(-384.942 -231.986)" fill="#e6e6e6"/>
        <path id="Path_4712" data-name="Path 4712" d="M656.262,345.5H507.782a2.5,2.5,0,0,1,0-5h148.48a2.5,2.5,0,0,1,0,5Z" transform="translate(-384.942 -247.918)" fill="#e6e6e6"/>
        <path id="Path_4713" data-name="Path 4713" d="M656.262,379.317H507.782a2.5,2.5,0,1,1,0-5h148.48a2.5,2.5,0,0,1,0,5Z" transform="translate(-384.942 -263.85)" fill="#e6e6e6"/>
        <path id="Path_4714" data-name="Path 4714" d="M411.025,534.035h-6.485l-3.085-25.012h9.571Z" transform="translate(-189.112 -239.783)" fill="#a0616a"/>
        <path id="Path_4715" data-name="Path 4715" d="M391.518,552.808h12.506v7.874h-20.38A7.874,7.874,0,0,1,391.518,552.808Z" transform="translate(-180.721 -260.409)" fill="#2f2e41"/>
        <path id="Path_4716" data-name="Path 4716" d="M462.025,534.035h-6.485l-3.085-25.012h9.571Z" transform="translate(-213.136 -239.783)" fill="#a0616a"/>
        <path id="Path_4717" data-name="Path 4717" d="M442.518,552.808h12.506v7.874h-20.38A7.874,7.874,0,0,1,442.518,552.808Z" transform="translate(-204.745 -260.409)" fill="#2f2e41"/>
        <path id="Path_4718" data-name="Path 4718" d="M713.63,614.222h-6.6a2.394,2.394,0,0,1-2.372-2.183l-5.594-67.386a.793.793,0,0,0-1.578-.028l-8.034,67.5a2.382,2.382,0,0,1-2.364,2.1h-8.105a2.383,2.383,0,0,1-2.379-2.367c-.018-4.24-.047-8.51-.076-12.782-.257-38.042-.523-77.379,7.42-92.79l.072-.141,28.664-.49.072.158c8.672,18.952,6.04,61.29,3.495,102.234l-.245,3.945A2.384,2.384,0,0,1,713.63,614.222Z" transform="translate(-465.566 -325.718)" fill="#2f2e41"/>
        <circle id="Ellipse_457" data-name="Ellipse 457" cx="12.991" cy="12.991" r="12.991" transform="translate(221.493 103.303)" fill="#a0616a"/>
        <path id="Path_4719" data-name="Path 4719" d="M685.209,467.063l.358-14.895-2.577-11.622a18.732,18.732,0,0,1,4.166-16.46,18.448,18.448,0,0,1,15.455-6.408h0q.281.022.563.047a18.525,18.525,0,0,1,12.764,6.827,18.74,18.74,0,0,1,4.107,14.056l-3.118,27.249Z" transform="translate(-468.436 -284.251)" fill="#ba0000"/>
        <path id="Path_4720" data-name="Path 4720" d="M659.015,538.783a5.319,5.319,0,0,0,.279-8.151l7.314-17.429-9.653,1.813-5.466,16.273a5.348,5.348,0,0,0,7.526,7.494Z" transform="translate(-453.278 -329.275)" fill="#a0616a"/>
        <path id="Path_4721" data-name="Path 4721" d="M765.622,542.385a5.319,5.319,0,0,1,.185-8.154L759.5,516.414l9.535,2.359,4.531,16.557a5.348,5.348,0,0,1-7.94,7.054Z" transform="translate(-504.693 -330.788)" fill="#a0616a"/>
        <path id="Path_4722" data-name="Path 4722" d="M661.852,490.777a2.381,2.381,0,0,1-.973-.208l-5.565-2.493a2.377,2.377,0,0,1-1.293-2.9l9.335-29,3.607-21.845a5.866,5.866,0,1,1,11.5,2.293l-5.483,23.428-8.851,29.036a2.379,2.379,0,0,1-2.277,1.686Z" transform="translate(-454.954 -289.81)" fill="#ba0000"/>
        <path id="Path_4723" data-name="Path 4723" d="M754.359,490.777a2.379,2.379,0,0,1-2.277-1.686l-8.847-29.019-5.487-23.444a5.866,5.866,0,1,1,11.5-2.293l3.617,21.883,9.325,28.958a2.377,2.377,0,0,1-1.293,2.9l-5.565,2.493A2.379,2.379,0,0,1,754.359,490.777Z" transform="translate(-494.376 -289.81)" fill="#ba0000"/>
        <path id="Path_4724" data-name="Path 4724" d="M703.441,357.491a7.673,7.673,0,0,0-9.784,4.037c-.907,2.275-.63,4.84-.13,7.238A31.091,31.091,0,0,1,694.663,376c-.077,2.448-1.131,5.045-3.3,6.178a21.913,21.913,0,0,1-4.221,1.155c-1.406.4-2.858,1.347-3.061,2.8-.306,2.192,2.353,3.862,2.335,6.075-.019,2.345-2.95,3.738-3.33,6.052a4.018,4.018,0,0,0,1.549,3.57,10.529,10.529,0,0,0,3.641,1.763,62.843,62.843,0,0,0,31.342,1.786,12.574,12.574,0,0,0,5.816-2.341c1.61-1.369,2.531-3.764,1.606-5.664-1.388-2.848-5.794-3.01-7.329-5.782-.921-1.662-.5-3.7-.3-5.594.5-4.882,1.656-10.586.443-15.342-1.1-4.3-3.475-9.849-6.876-12.694-2.44-2.042-7.1-1.112-10.218-.482Z" transform="translate(-468.69 -255.558)" fill="#2f2e41"/>
        <path id="Path_4725" data-name="Path 4725" d="M755.887,733.587H570.76a.529.529,0,1,1,0-1.058H755.887a.529.529,0,1,1,0,1.058Z" transform="translate(-415.537 -432.592)" fill="#ccc"/>
        <path id="Path_4726" data-name="Path 4726" d="M862.785,688.87c-7.627,10.214-23.459,11.289-23.459,11.289s-3.466-15.486,4.161-25.7,23.459-11.289,23.459-11.289S870.412,678.655,862.785,688.87Z" transform="translate(-541.928 -399.92)" fill="#e6e6e6"/>
        <path id="Path_4727" data-name="Path 4727" d="M808.014,703.914c5.033,6.74,15.48,7.449,15.48,7.449s2.287-10.218-2.745-16.958-15.48-7.45-15.48-7.45S802.981,697.174,808.014,703.914Z" transform="translate(-526.011 -411.124)" fill="#e6e6e6"/>
      </g>
      <text id="We_are_offline_at_the_moment." data-name="We are offline at the moment." transform="translate(564.439 362)" fill="#ba0000" font-size="14" font-family="LucidaHandwriting-Italic, Lucida Handwriting" font-style="italic"><tspan x="0" y="0">We are offline at the moment.</tspan></text>
      <path id="Icon_awesome-exclamation-triangle" data-name="Icon awesome-exclamation-triangle" d="M25.252,19.51A2.13,2.13,0,0,1,23.408,22.7H2.131A2.13,2.13,0,0,1,.287,19.51L10.926,1.063a2.13,2.13,0,0,1,3.687,0ZM12.77,15.7a2.04,2.04,0,1,0,2.04,2.04A2.04,2.04,0,0,0,12.77,15.7ZM10.833,8.365l.329,6.03a.532.532,0,0,0,.531.5h2.152a.532.532,0,0,0,.531-.5l.329-6.03a.532.532,0,0,0-.531-.561h-2.81a.532.532,0,0,0-.531.561Z" transform="translate(576.439 396)" fill="#ba0000"/>
    </g>
  </g>
</svg>
