<svg xmlns="http://www.w3.org/2000/svg" width="28" height="24.889" viewBox="0 0 28 24.889">
  <path id="Icon_awesome-map-marked-alt" data-name="Icon awesome-map-marked-alt" d="M14,0A6.125,6.125,0,0,0,7.875,6.125c0,2.735,4,7.719,5.537,9.529a.767.767,0,0,0,1.176,0c1.534-1.809,5.537-6.794,5.537-9.529A6.125,6.125,0,0,0,14,0Zm0,8.167a2.042,2.042,0,1,1,2.042-2.042A2.041,2.041,0,0,1,14,8.167ZM.978,10.5A1.556,1.556,0,0,0,0,11.942V24.11a.778.778,0,0,0,1.067.722l6.711-3.055V10.448A14.721,14.721,0,0,1,6.745,8.191ZM14,17.484a2.323,2.323,0,0,1-1.775-.824c-.956-1.128-1.972-2.412-2.892-3.729v8.847l9.333,3.111V12.931c-.92,1.317-1.936,2.6-2.892,3.729A2.324,2.324,0,0,1,14,17.484Zm12.933-9.65-6.711,3.055v14l6.8-2.72A1.555,1.555,0,0,0,28,20.725V8.557A.778.778,0,0,0,26.933,7.834Z" fill="rgba(0,0,0,0.5)"/>
</svg>
