<svg xmlns="http://www.w3.org/2000/svg" width="277" height="254.343" viewBox="0 0 277 254.343">
  <g id="Ok-amico" transform="translate(-18.473 -48.949)">
    <g id="freepik--Floor--inject-127" transform="translate(18.472 143.412)">
      <path id="freepik--floor--inject-127-2" data-name="freepik--floor--inject-127" d="M59.034,355.932c-54.082-31.225-54.082-81.856,0-113.057s141.77-31.225,195.87,0,54.082,81.856,0,113.057S113.122,387.164,59.034,355.932Z" transform="translate(-18.472 -219.465)" fill="#f5f5f5"/>
    </g>
    <g id="freepik--Shadow--inject-127" transform="translate(59.824 163.512)">
      <ellipse id="freepik--shadow--inject-127-2" data-name="freepik--shadow--inject-127" cx="42.495" cy="24.532" rx="42.495" ry="24.532" transform="translate(0 68.811)" fill="#e0e0e0"/>
      <ellipse id="freepik--shadow--inject-127-3" data-name="freepik--shadow--inject-127" cx="60.62" cy="30.167" rx="60.62" ry="30.167" transform="translate(58.719 57.553) rotate(-28.34)" fill="#e0e0e0"/>
    </g>
    <g id="freepik--Plants--inject-127" transform="translate(61.41 184.596)">
      <g id="freepik--plants--inject-127-2" data-name="freepik--plants--inject-127" transform="translate(163.591)">
        <path id="Path_5246" data-name="Path 5246" d="M368.587,314.273c5.892-7.023,15.122-11.6,25.5-14.3,10.253-2.662,12.089-8.973,5.294-11.013-7.7-2.321-17.306,1.938-23.5,7.866-10.791,10.331-12.149,18.221-12.149,18.221Z" transform="translate(-363.73 -288.313)" fill="#c53f3f"/>
        <path id="Path_5247" data-name="Path 5247" d="M368.587,314.273c5.892-7.023,15.122-11.6,25.5-14.3,10.253-2.662,12.089-8.973,5.294-11.013-7.7-2.321-17.306,1.938-23.5,7.866-10.791,10.331-12.149,18.221-12.149,18.221Z" transform="translate(-363.73 -288.313)" opacity="0.15"/>
        <path id="Path_5248" data-name="Path 5248" d="M366.579,315.924a.323.323,0,0,1-.132,0,.3.3,0,0,1-.138-.4c8.745-17.946,28.115-22.36,32.8-22.025a.3.3,0,0,1,.275.317.305.305,0,0,1-.323.275c-4.594-.347-23.61,4.026-32.218,21.7a.311.311,0,0,1-.269.138Z" transform="translate(-364.754 -290.39)" fill="#fff"/>
        <path id="Path_5249" data-name="Path 5249" d="M363.73,326.927a1.633,1.633,0,0,0,2.47,1.4c5.479-3.188,13.471-4.953,26.4-1.268,6.879,1.956,10.265.646,11.712-2.153,1.615-3.111-1.795-6.119-5.683-7.537-13.238-4.839-25.184-1.537-34.9,8.117Z" transform="translate(-363.73 -299.101)" fill="#c53f3f"/>
        <path id="Path_5250" data-name="Path 5250" d="M364.79,329.886a.308.308,0,0,1-.227-.52c11.431-10.217,29.138-8.225,35.837-4.241a.3.3,0,0,1,.108.407.305.305,0,0,1-.413.108c-6.58-3.906-23.927-5.85-35.132,4.187a.323.323,0,0,1-.173.06Z" transform="translate(-364.03 -301.803)" fill="#fff"/>
      </g>
      <g id="freepik--plants--inject-127-3" data-name="freepik--plants--inject-127" transform="translate(0 22.651)">
        <path id="Path_5251" data-name="Path 5251" d="M128.374,355.174c-5.025-7.669-13.651-13.3-23.64-17.21-9.858-3.852-10.941-10.331-3.954-11.563,7.92-1.394,16.959,3.972,22.414,10.588,9.5,11.533,9.912,19.543,9.912,19.543Z" transform="translate(-92.681 -326.179)" fill="#c53f3f"/>
        <path id="Path_5252" data-name="Path 5252" d="M128.374,355.174c-5.025-7.669-13.651-13.3-23.64-17.21-9.858-3.852-10.941-10.331-3.954-11.563,7.92-1.394,16.959,3.972,22.414,10.588,9.5,11.533,9.912,19.543,9.912,19.543Z" transform="translate(-92.681 -326.179)" opacity="0.15"/>
        <path id="Path_5253" data-name="Path 5253" d="M134.865,357.035a.341.341,0,0,0,.132,0,.305.305,0,0,0,.185-.383C128.6,337.8,109.915,331.133,105.2,330.93a.3.3,0,0,0-.311.281.311.311,0,0,0,.287.317c4.606.191,22.97,6.777,29.437,25.339A.3.3,0,0,0,134.865,357.035Z" transform="translate(-96.133 -328.088)" fill="#fff"/>
        <path id="Path_5254" data-name="Path 5254" d="M130.718,367.486a2.488,2.488,0,0,1-3.858,1.795c-5.073-3.4-12.628-5.605-25-3.589-7.059,1.131-10.265-.6-11.366-3.523-1.232-3.278,2.512-5.856,6.538-6.807,13.716-3.242,25.19,1.448,33.7,12.173Z" transform="translate(-90.251 -337.499)" fill="#c53f3f"/>
        <path id="Path_5255" data-name="Path 5255" d="M132.786,371.806a.287.287,0,0,0,.233-.072.305.305,0,0,0,0-.425c-10.169-11.491-27.965-11.6-35.09-8.44a.3.3,0,1,0,.245.55c6.981-3.1,24.448-2.991,34.4,8.285A.275.275,0,0,0,132.786,371.806Z" transform="translate(-93.265 -340.209)" fill="#fff"/>
      </g>
    </g>
    <g id="freepik--check-mark--inject-127" transform="translate(119.66 69.039)">
      <g id="freepik--check-mark--inject-127-2" data-name="freepik--check-mark--inject-127">
        <g id="freepik--Circle--inject-127" transform="translate(0 14.255)">
          <path id="Path_5256" data-name="Path 5256" d="M303.194,135.239h0l-.1-.048h0l-22.8-13.124h0l-.138-.066h0c-10.654-5.384-24.867-3.763-40.156,6.119-30.711,19.86-54.112,65.573-52.27,102.1.915,18.2,7.938,30.687,18.544,36.178h0l.09.048h0l22.809,13.13h0l.108.06h0c10.654,5.384,24.879,3.786,40.18-6.107,30.711-19.86,54.112-65.573,52.27-102.1C320.828,153.214,313.806,140.73,303.194,135.239Z" transform="translate(-187.63 -118.966)" fill="#37474f"/>
          <path id="Path_5257" data-name="Path 5257" d="M228.4,319.227l-22-12.717h0l-.108-.066c-10.606-5.5-17.623-17.987-18.544-36.166-.82-16.295,3.386-34.4,11.007-51.217l.15-.371,22.659,13.5C213.935,249,209.741,267.107,210.561,283.4,211.428,301.222,218.17,313.556,228.4,319.227Z" transform="translate(-187.638 -159.036)" fill="#263238"/>
          <path id="Path_5258" data-name="Path 5258" d="M284.783,282.331c30.711-19.86,54.112-65.573,52.27-102.1s-28.234-50.038-58.945-30.179-54.118,65.573-52.276,102.1S254.072,302.191,284.783,282.331Z" transform="translate(-202.939 -127.775)" fill="#455a64"/>
        </g>
        <path id="freepik--shadow--inject-127-4" data-name="freepik--shadow--inject-127" d="M320.639,141.43l-38.493,79.3-8.285-8.973a13.619,13.619,0,1,0-20.011,18.48l21.83,23.645a13.549,13.549,0,0,0,9.266,4.355h.754a13.824,13.824,0,0,0,1.974-.144,13.6,13.6,0,0,0,10.277-7.525L342.1,159.645C337.567,149.547,330.03,143.29,320.639,141.43Z" transform="translate(-212.785 -113.737)" fill="#37474f"/>
        <path id="Path_5259" data-name="Path 5259" d="M354.69,96.711c-.239-.138-.491-.269-.742-.389a11.838,11.838,0,0,0-15.8,5.467l-48.98,100.89-2.788-2.991a11.5,11.5,0,0,0-2.776-2.219c-1.46-.837-7.669-4.433-8.674-5.013A11.826,11.826,0,0,0,260.32,210.72l21.828,23.64a11.756,11.756,0,0,0,2.817,2.243c1.424.808,7.609,4.4,8.626,4.983a11.826,11.826,0,0,0,16.564-5.067L368.1,117.163a11.844,11.844,0,0,0-4.72-15.409Z" transform="translate(-215.576 -95.135)" fill="#c53f3f"/>
        <path id="Path_5260" data-name="Path 5260" d="M354.69,96.711c-.239-.138-.491-.269-.742-.389a11.838,11.838,0,0,0-15.8,5.467l-48.98,100.89-2.788-2.991a11.5,11.5,0,0,0-2.776-2.219c-1.46-.837-7.669-4.433-8.674-5.013A11.826,11.826,0,0,0,260.32,210.72l21.828,23.64a11.756,11.756,0,0,0,2.817,2.243c1.424.808,7.609,4.4,8.626,4.983a11.826,11.826,0,0,0,16.564-5.067L368.1,117.163a11.844,11.844,0,0,0-4.72-15.409Z" transform="translate(-215.576 -95.135)" opacity="0.15"/>
        <path id="Path_5261" data-name="Path 5261" d="M294.14,316.776c-1-.6-7.178-4.187-8.62-4.983a11.785,11.785,0,0,1-2.817-2.243l-21.828-23.64a11.785,11.785,0,0,1-2.255-3.589l8.68,5.007a11.491,11.491,0,0,0,2.267,3.589l21.822,23.64a12.03,12.03,0,0,0,2.752,2.219Z" transform="translate(-216.155 -170.348)" opacity="0.15"/>
        <path id="Path_5262" data-name="Path 5262" d="M371.055,105.193a11.82,11.82,0,0,0-2.74,3.637L317.936,212.6l-7.286-7.9,48.98-100.89a11.676,11.676,0,0,1,2.746-3.637Z" transform="translate(-237.061 -97.162)" opacity="0.15"/>
        <path id="freepik--Check--inject-127" d="M368.653,104.705a11.85,11.85,0,0,0-15.8,5.467L302.469,213.946,292.4,203.035a11.82,11.82,0,0,0-17.347,16.043l21.822,23.646a11.826,11.826,0,0,0,19.321-2.859l57.946-119.356a11.838,11.838,0,0,0-5.491-15.8Z" transform="translate(-221.594 -98.505)" fill="#c53f3f"/>
      </g>
    </g>
    <g id="freepik--Character--inject-127" transform="translate(55.287 48.949)">
      <g id="freepik--character--inject-127-2" data-name="freepik--character--inject-127" transform="translate(0 0)">
        <path id="Path_5263" data-name="Path 5263" d="M126.2,114.31c-4.564,0-7.687,1.2-10.929,5.8-2.991,4.235-11.15,18.352-11.15,18.352s-5.982-12.275-6.58-14.721-.562-3.535,0-4.6a9.607,9.607,0,0,0,1.507-4.187c.233-2.943.951-5.461.293-5.545-1.824-.1-1.9,2.243-2.853,3.625a1.149,1.149,0,0,1-1.842-.2c-.4-.82-.185-2.165-.377-3.135a12.851,12.851,0,0,1,.257-1.6,7.035,7.035,0,0,0,2.094.06c.79,1.238,1.328,1.759,2.429,1.256a7.235,7.235,0,0,0-1.2-2.991.813.813,0,0,0-.491-.371,9.3,9.3,0,0,0-4.056-.114.76.76,0,0,0-.52.287,9.918,9.918,0,0,0-1.2,2.393c-.078.257-.317.251-.377.03a49.748,49.748,0,0,1-.6-8.913c0-1.513-2.207-1.753-2.285.413a70.044,70.044,0,0,0,.15,8.716c0,.263-.263.389-.371.1a36.248,36.248,0,0,1-1.717-9.451c-.108-1.436-2.429-1.669-2.393.347A51.188,51.188,0,0,0,85.39,110.47c.072.251-.162.473-.335.185a34.438,34.438,0,0,1-2.6-6.58c-.5-1.735-2.811-1.292-2.393.867a51.673,51.673,0,0,0,3.589,12.263c1.83,3.739,3.41,5.611,4.319,8.548s4.672,19.573,8.7,26.057c3.152,5.085,6.76,4.612,10.642,1.932s17.754-22.007,17.754-22.007Z" transform="translate(-80.016 -76.355)" fill="#9e6767"/>
        <path id="Path_5264" data-name="Path 5264" d="M120.32,164.365a18.788,18.788,0,0,1,2.243,5.934,10.349,10.349,0,0,0-1.376-7.429Z" transform="translate(-96.211 -102.261)" fill="#874c4c"/>
        <path id="Path_5265" data-name="Path 5265" d="M144.549,124.919a12.3,12.3,0,0,0-8.428,1.711c-3.218,2.028-4.343,4.851-5.9,7.322s-6.957,11.222-6.957,11.222,1.98,8.309,9.852,10.02l11.79-16Z" transform="translate(-97.392 -86.964)" fill="#455a64"/>
        <path id="Path_5266" data-name="Path 5266" d="M159.908,369.229c.6-.078,1.394,1.962,1.406,2.626a8.554,8.554,0,0,1-1.537,3.434,24.131,24.131,0,0,0-2.9,5.162,17.42,17.42,0,0,1-3.182,5.461c-2.094,2.686-7.011,7.178-14.476,5.228a6.9,6.9,0,0,1-3.4-1.717,2.219,2.219,0,0,1-.52-2.285Z" transform="translate(-102.18 -185.178)" fill="#263238"/>
        <path id="Path_5267" data-name="Path 5267" d="M145.2,362.754v.066a4.684,4.684,0,0,0,.048,1.681,11.754,11.754,0,0,1-2.829,9.206,17.712,17.712,0,0,1-3.493,2.823c-3.781,2.393-4.187,4.026-3.655,6.466,1.268,2.841,9.84,4.57,14.769.341a14.518,14.518,0,0,0,4.7-6.383,45.148,45.148,0,0,1,2.488-5.264c.951-1.795,2.758-3.816,2.811-5.665.03-1.017-.975-2.907-1.95-4.462-.9-1.43-1.824-2.788-2.632-2.632l.227.808c-.676.7-1.651.963-2.237,1.795-.73,1.011-.706,2.393-1.154,3.529a.407.407,0,0,1-.221.269.3.3,0,0,1-.317-.161.867.867,0,0,1-.066-.371l-.054-1.741a1.465,1.465,0,0,0-.251-.945c-.467-.526-1.615-.467-2.255-.491a24.648,24.648,0,0,0-2.578.156,1.238,1.238,0,0,0-.837.221A1.477,1.477,0,0,0,145.2,362.754Z" transform="translate(-102.143 -181.037)" fill="#37474f"/>
        <path id="Path_5268" data-name="Path 5268" d="M130.34,270.4c1.992,6.55,11.306,29.227,11.862,30.591l1.854,4.5a6.969,6.969,0,0,0,3.781.162c.2,2.171.526,5.575.652,7.292a28.838,28.838,0,0,1-.209,6.424c-.365,1.675-.79,3.434-1.107,5.115-.138.742-.275,1.49-.389,2.237a3.745,3.745,0,0,0,.185,2.351,2.913,2.913,0,0,0,.742.837,6.58,6.58,0,0,0,4.69,1.376,4.875,4.875,0,0,0,2.488-.825c1.448-1.035,1.956-2.835,2.692-4.367.8-1.657.544-1.842.6-3.619.048-1.244.395-4.4.891-7.7s2.638-14.907,3.667-26.47a94.82,94.82,0,0,0,0-15.433c8.171-22.2,11.808-35.4,12.879-42.77,1.083-7.489.562-10.169.425-14.47l-39.738.957C133.121,237.119,127.666,261.615,130.34,270.4ZM149.751,235.175Z" transform="translate(-99.949 -123.457)" fill="#9e6767"/>
        <path id="Path_5269" data-name="Path 5269" d="M129.311,255.227c.82-7.549,6.466-36.567,6.466-36.567h40.031s.257,5.569.185,8.129a76.3,76.3,0,0,1-2.327,13.16c-1.43,5.928-6.73,22.659-7.776,25.124s-2.991,9.613-2.991,9.613c.981,13.423-1.573,25.471-3.487,41.484,0,0-.556,2.159-6.227,1.735-5.515-.419-6.628-2.453-6.628-2.453l-.365-13.812s-2.991.921-4.785.5c0,0-11.85-29.257-12.424-31.016S128.491,262.776,129.311,255.227Z" transform="translate(-99.542 -124.678)" fill="#c53f3f"/>
        <path id="Path_5270" data-name="Path 5270" d="M129.311,255.227c.82-7.549,6.466-36.567,6.466-36.567h40.031s.257,5.569.185,8.129a76.3,76.3,0,0,1-2.327,13.16c-1.43,5.928-6.73,22.659-7.776,25.124s-2.991,9.613-2.991,9.613c.981,13.423-1.573,25.471-3.487,41.484,0,0-.556,2.159-6.227,1.735-5.515-.419-6.628-2.453-6.628-2.453l-.365-13.812s-2.991.921-4.785.5c0,0-11.85-29.257-12.424-31.016S128.491,262.776,129.311,255.227Z" transform="translate(-99.542 -124.678)" opacity="0.45"/>
        <path id="Path_5271" data-name="Path 5271" d="M153.513,244.116c-5.671-5.109-6.933-9.176-6.933-9.176a37.926,37.926,0,0,0,9.984,8s-5.384,28.426-4.989,34.27,1.836,30.974,1.836,30.974c0,.239-3.816-26.577-3.93-28.713C149.224,273.816,153.513,244.116,153.513,244.116Z" transform="translate(-106.762 -131.22)" opacity="0.2"/>
        <path id="Path_5272" data-name="Path 5272" d="M161.114,405.46c.556.161.485,1.824.233,2.447a7.579,7.579,0,0,1-2.566,2.662,12.562,12.562,0,0,0-3.8,4.086,19.232,19.232,0,0,1-5.952,5.814,14.356,14.356,0,0,1-10.468,1.466c-3.757-1.065-4.1-1.986-4.074-3.4Z" transform="translate(-101.903 -199.737)" fill="#263238"/>
        <path id="Path_5273" data-name="Path 5273" d="M149.143,390.853c-.987,4.785-2.7,8.3-6.682,11.258-3.17,2.357-5.467,3.553-8,5.653-1.071.9-1.16,2.806-.341,4.863a11.493,11.493,0,0,0,7.4,2.153c3.649,0,5.049-.652,7.142-2.082a19.207,19.207,0,0,0,2.859-2.393c1.753-1.759,2.991-3.93,4.235-5.324s4-2.817,4.786-4.5c.431-.921.251-3.057-.036-4.875-.263-1.669.245-4.6-.556-4.785l-.114,1.2c-.066.269-.233.407-.8.6a4.151,4.151,0,0,1-1.537.042.921.921,0,0,0-1.035.293c-.538.634-.682,1.531-1.376,2.058a.4.4,0,0,1-.156.084.168.168,0,0,1-.173-.006.245.245,0,0,1-.03-.2l.2-1.795a2.034,2.034,0,0,0,0-.538,1.2,1.2,0,0,0-.6-.79,6.43,6.43,0,0,0-1.609-.664,9.414,9.414,0,0,0-1.795-.305,5.7,5.7,0,0,0-1.789.054Z" transform="translate(-101.536 -193.828)" fill="#455a64"/>
        <path id="Path_5274" data-name="Path 5274" d="M176.827,126.721a24.011,24.011,0,0,1,2.991,6.921,113.446,113.446,0,0,1,2.512,23.281c0,10.57-1.424,27.7-1.424,27.7-12.269,6.149-32.057,2.512-40.766-3.487.353-1.9.652-11.9,1.34-18.5.461-11.318.843-17.246.921-22.282.162-10.062,5.168-15.26,8.973-15.338l9.607.15Z" transform="translate(-104.174 -87.049)" fill="#c53f3f"/>
        <path id="Path_5275" data-name="Path 5275" d="M201.206,219.47c-1.824,1.5-5.384,4.385-6.06,5.838-.754,1.663-1.2,4.187-1.7,5.132s.257,1.424,1.31,1.083,1.681-1.232,2.494-3.41a10.331,10.331,0,0,1,3.075-3.882Z" transform="translate(-125.527 -125.004)" fill="#874c4c"/>
        <path id="Path_5276" data-name="Path 5276" d="M195.36,202.243c.437.843,1.454.849,2.393.921a7.6,7.6,0,0,0,3.392-.383,6.191,6.191,0,0,0,3.26-2.267c.921-1.328,1.16-2.991,1.687-4.516,1.1-3.2,4.379-5.509,4.917-8.9a22.211,22.211,0,0,1,.6-3.918c.233-.514,5.623-9.792,7.549-13.812,1.842-3.864,3.224-5.683,1.549-10.325s-7.376-20.978-11.413-26.655c-2.285-3.218-5.916-4.139-10.319-4.516-3.35,8.722.544,17.736.544,17.736l8.889,17.1s-3.446,11.772-5.6,18.316c-.6,1.795-1.795,2.943-3.164,4.959a39.982,39.982,0,0,0-2.429,3.344,11.709,11.709,0,0,0-.9,3.679C195.85,195.7,195.126,201.842,195.36,202.243Z" transform="translate(-126.344 -88.198)" fill="#9e6767"/>
        <path id="Path_5277" data-name="Path 5277" d="M199.725,127.79c2.315.09,5.641.485,7.627,1.489s3.368,2.243,5.653,6.825,5.629,13.483,5.629,13.483-1.107,6.718-11.73,8.458l-7.178-13.238A26.466,26.466,0,0,1,199.725,127.79Z" transform="translate(-127.545 -88.166)" fill="#455a64"/>
        <path id="Path_5278" data-name="Path 5278" d="M150.546,79.794a13.29,13.29,0,0,1,.814,1.765,10.367,10.367,0,0,0,1.346,2.219,22.653,22.653,0,0,0,5.073,3.87,5.423,5.423,0,0,0,3.589,1.137,18.664,18.664,0,0,1,4.1.215l4.708.425-.263,4.947s.6-1.31,1.382-2.877c.682-1.346,3.541-8.171,3.553-8.2,1.418-3.38,3.1-7.89,1.406-11.443a4.7,4.7,0,0,0-1.842-2.112,4.271,4.271,0,0,0,.156-1.687,5.42,5.42,0,0,0-2.5-3.96,11.9,11.9,0,0,0-4.439-1.83,27.983,27.983,0,0,0-6.425-.712,37.912,37.912,0,0,0-6.3.724,22.336,22.336,0,0,1-3.511.365,6.765,6.765,0,0,1-1.519-.072,17.283,17.283,0,0,1-1.836-.664.425.425,0,0,0-.329,0,.4.4,0,0,0-.173.281,5.33,5.33,0,0,0,.975,4.313,2.734,2.734,0,0,1-.778-.227,6.287,6.287,0,0,1-.808-.449,4.564,4.564,0,0,1-1.137-1.089.329.329,0,0,0-.185-.138.379.379,0,0,0-.287.179,4.187,4.187,0,0,0-.6,3.308,7.178,7.178,0,0,0,1.555,3.057,4.187,4.187,0,0,0-.215,4.014,5.593,5.593,0,0,0,1.059,1.519c.538.55,1.2,1,1.741,1.513A10.17,10.17,0,0,1,150.546,79.794Z" transform="translate(-105.966 -61.549)" fill="#37474f"/>
        <path id="Path_5279" data-name="Path 5279" d="M166.8,78.2a9.057,9.057,0,0,0,.341,2.644,5.162,5.162,0,0,0,1.334,1.98,15.222,15.222,0,0,1,1.854,1.872,7.9,7.9,0,0,1,1.041,3.446,2.393,2.393,0,0,0,.909,1.854c1.28.8,2.046-.742,2.728-1.5.879-.814,3.493-1.795,4.7.969,1.25,2.871-1.059,6.676-3.158,7.262-3.619,1.011-4.409-1.454-4.409-1.454l-.694,12.921c-2.04,3.87-6.837,5.1-9.99,4.486-2.722-.532-4.217-2.441-1.657-5.2l.138-3.936a22.459,22.459,0,0,1-4.839.09c-2.626-.491-3.924-2.722-4.636-5.6-1.131-4.624-1.651-9.487-.245-19.9.64-.353,3.23,1.663,7.178,1.932A18.215,18.215,0,0,0,166.8,78.2Z" transform="translate(-107.883 -68.196)" fill="#9e6767"/>
        <path id="Path_5280" data-name="Path 5280" d="M166.964,117.434s5.922-.993,8.016-2.022a6.778,6.778,0,0,0,2.931-2.722,9.278,9.278,0,0,1-1.723,3.266c-1.567,1.872-9.278,3.045-9.278,3.045Z" transform="translate(-114.931 -82.098)" fill="#874c4c"/>
        <path id="Path_5281" data-name="Path 5281" d="M172.15,85.287l2.758.843a1.513,1.513,0,0,0-.993-1.848,1.412,1.412,0,0,0-1.765,1Z" transform="translate(-117.037 -70.661)" fill="#263238"/>
        <path id="Path_5282" data-name="Path 5282" d="M167.822,107.84l-4.062,1.376a2.112,2.112,0,0,0,2.68,1.418,2.249,2.249,0,0,0,1.382-2.794Z" transform="translate(-113.665 -80.15)" fill="#874c4c"/>
        <path id="Path_5283" data-name="Path 5283" d="M168.445,109.5a2.393,2.393,0,0,0-2.315,1.795,2.022,2.022,0,0,0,1.262,0,2.207,2.207,0,0,0,1.448-1.759A2.213,2.213,0,0,0,168.445,109.5Z" transform="translate(-114.618 -80.817)" fill="#f28f8f"/>
        <path id="Path_5284" data-name="Path 5284" d="M151.566,85.672l2.806-.365a1.37,1.37,0,0,0-1.555-1.2A1.442,1.442,0,0,0,151.566,85.672Z" transform="translate(-108.763 -70.609)" fill="#263238"/>
        <path id="Path_5285" data-name="Path 5285" d="M180.4,88.73l9.254,3.152a3.386,3.386,0,0,0-2.668,1.352l-6.55-2.488Z" transform="translate(-120.351 -72.471)" fill="#263238"/>
        <path id="Path_5286" data-name="Path 5286" d="M153.878,94.019a1.119,1.119,0,0,0,1.065,1.2,1.131,1.131,0,0,0,1.143-1.119,1.119,1.119,0,0,0-1.065-1.2A1.131,1.131,0,0,0,153.878,94.019Z" transform="translate(-109.694 -74.146)" fill="#263238"/>
        <path id="Path_5287" data-name="Path 5287" d="M171.55,94.023a1.107,1.107,0,1,0,1.143-1.113A1.131,1.131,0,0,0,171.55,94.023Z" transform="translate(-116.795 -74.15)" fill="#263238"/>
        <path id="Path_5288" data-name="Path 5288" d="M144.749,89.029a2.5,2.5,0,0,0,.6,1.3,1.2,1.2,0,0,1,.233.467,22.811,22.811,0,0,0,.826,3.523,3.876,3.876,0,0,0,3.787,2.5,5.384,5.384,0,0,0,1.292-.108h.1a3.984,3.984,0,0,0,1.053-.413l.06-.042.09-.054.114-.078.1-.084.114-.09a.556.556,0,0,0,.108-.1,2.231,2.231,0,0,0,.2-.209,4.786,4.786,0,0,0,.843-1.334c.55-1.232.407-2.955,1.3-3.158h.227c1.2,0,1.089,1.9,1.795,3.236a4.575,4.575,0,0,0,4.468,2.686h.341a2.06,2.06,0,0,0,.275,0,4.128,4.128,0,0,0,.64-.09l.2-.048a1.794,1.794,0,0,0,.191-.054l.126-.036a3.8,3.8,0,0,0,.718-.341,2.1,2.1,0,0,0,.239-.161,2.99,2.99,0,0,0,.413-.365,4.187,4.187,0,0,0,.808-1.244,21.756,21.756,0,0,0,.724-3.493,1.483,1.483,0,0,1,.2-.508,2.393,2.393,0,0,0,.6-1.256,1.1,1.1,0,0,0-.742-1.107l-.652-.084a19.768,19.768,0,0,0-6.454.078c-2.046.556-2.758,1.2-3.9,1.2s-1.759-.706-3.7-1.34a17.517,17.517,0,0,0-6.048-.305l-.6.06A1.041,1.041,0,0,0,144.749,89.029Zm13.471,1.286a1.717,1.717,0,0,1,.6-.473.6.6,0,0,1,.1-.06h.06c.09-.048.185-.1.287-.138l.269-.108a7.9,7.9,0,0,1,.873-.275l.347-.084c.3-.06.6-.108.9-.138a1.362,1.362,0,0,1,.215,0,5.233,5.233,0,0,1,3.649.706c.449.4.251,2.243.066,3.17v.138a1.664,1.664,0,0,1-.084.377c-.036.138-.042.15-.066.227h0c-.042.126-.084.251-.132.383h0a1.279,1.279,0,0,1-.06.132.669.669,0,0,1-.03.078l-.042.09-.054.108-.066.126c0,.042-.054.084-.084.126a.979.979,0,0,1-.084.132,3.1,3.1,0,0,1-2.758,1.3,3.816,3.816,0,0,1-2.907-1.113h0a5.481,5.481,0,0,1-1-4.708Zm-11.593-.963a1.8,1.8,0,0,1,.479-.305h.036l.215-.084.132-.042h.317a3.816,3.816,0,0,0,.455-.078H149.3a7.04,7.04,0,0,1,.909.084,5.584,5.584,0,0,1,3.26,1.436,4.55,4.55,0,0,1,.114,2.805,4.261,4.261,0,0,1-.179.694.274.274,0,0,0,0,.054v.114l-.036.084-.072.167c0,.048-.048.1-.078.15a.358.358,0,0,1,0,.048l-.06.1-.054.084A3.1,3.1,0,0,1,150.174,96a3.505,3.505,0,0,1-1.472-.359,4.153,4.153,0,0,1-1.92-2.991c-.3-1.071-.574-2.907-.156-3.308Z" transform="translate(-106.025 -72.1)" fill="#263238"/>
        <path id="Path_5289" data-name="Path 5289" d="M160.738,93.412l-.209,7.693-4.289-1.244,4-6.514a1.113,1.113,0,0,1,.5.066Z" transform="translate(-110.644 -74.324)" fill="#874c4c"/>
      </g>
    </g>
    <g id="freepik--Icons--inject-127" transform="translate(38.395 52.702)">
      <g id="freepik--like-icon--inject-127" transform="translate(178.369 0)">
        <path id="Path_5293" data-name="Path 5293" d="M355.738,87.887,352.383,88.9,349.96,80.8l3.344-1Z" transform="translate(-349.96 -72.636)" fill="#e0e0e0"/>
        <path id="Path_5294" data-name="Path 5294" d="M369.246,75.891a1.555,1.555,0,0,1-.951,1.567,2.267,2.267,0,0,1,.473.855c.191.6-.317,1.466-1.328,1.795l-7.675,2.309L357.51,74.9h0s1.3-3.32,1.364-3.822a12.518,12.518,0,0,0-.808-2.692c-.108-.347,1.137-.8,2.118-.407a1.759,1.759,0,0,1,.6.437,5.306,5.306,0,0,1,.879,1.262,4.5,4.5,0,0,1,.467,2.118l4.648-1.418a1.46,1.46,0,0,1,.993,0,1.31,1.31,0,0,1,.371,2.213,1.238,1.238,0,0,1,1.268.855,1.364,1.364,0,0,1-.766,1.549A1.442,1.442,0,0,1,369.246,75.891Z" transform="translate(-352.994 -67.824)" fill="#e0e0e0"/>
      </g>
      <g id="freepik--like-icon--inject-127-2" data-name="freepik--like-icon--inject-127" transform="translate(227.929 82.436)">
        <path id="Path_5295" data-name="Path 5295" d="M437.111,225.947l-4.3-1.035,2.506-10.373,4.3,1.035Z" transform="translate(-432.81 -209.213)" fill="#e0e0e0"/>
        <path id="Path_5296" data-name="Path 5296" d="M457.038,221.2A1.968,1.968,0,0,1,455,222.309a2.93,2.93,0,0,1-.03,1.232,2.024,2.024,0,0,1-2.578,1.083l-9.846-2.393,2.321-9.637h0s3.535-2.794,3.924-3.3a16.07,16.07,0,0,0,.831-3.452c.108-.461,1.753-.15,2.572.909a2.184,2.184,0,0,1,.407.873,6.7,6.7,0,0,1,.156,1.932,5.772,5.772,0,0,1-.838,2.614l5.946,1.436a1.836,1.836,0,0,1,1.065.664,1.717,1.717,0,0,1,.317,1.376,1.741,1.741,0,0,1-1.322,1.274,1.561,1.561,0,0,1,.838,1.741,1.735,1.735,0,0,1-1.824,1.2A1.8,1.8,0,0,1,457.038,221.2Z" transform="translate(-436.724 -205.634)" fill="#e0e0e0"/>
      </g>
      <g id="freepik--like-icon--inject-127-3" data-name="freepik--like-icon--inject-127" transform="translate(0 71.541)">
        <path id="Path_5297" data-name="Path 5297" d="M76.82,215.63l4.7,1.412,3.4-11.33-4.69-1.412Z" transform="translate(-61.84 -194.203)" fill="#e0e0e0"/>
        <path id="Path_5298" data-name="Path 5298" d="M52.084,198.78a2.177,2.177,0,0,0,1.334,2.2,3.254,3.254,0,0,0-.658,1.2c-.269.879.449,2.058,1.854,2.477l10.767,3.236,3.146-10.546h0s-1.824-4.654-1.914-5.384.987-3.278,1.131-3.769c.12-.395-1.591-1.119-2.991-.562a2.351,2.351,0,0,0-.873.6,7.394,7.394,0,0,0-1.232,1.795,6.4,6.4,0,0,0-.658,2.991l-6.46-1.95a2.022,2.022,0,0,0-1.394.048,1.83,1.83,0,0,0-.514,3.1,1.729,1.729,0,0,0-1.795,1.2,1.92,1.92,0,0,0,1.071,2.177,2.034,2.034,0,0,0-.814,1.2Z" transform="translate(-51.777 -187.421)" fill="#e0e0e0"/>
      </g>
    </g>
  </g>
</svg>
